<?xml version="1.0" standalone="no"?>
<!DOCTYPE svg PUBLIC "-//W3C//DTD SVG 20010904//EN"
 "http://www.w3.org/TR/2001/REC-SVG-20010904/DTD/svg10.dtd">
<svg version="1.0" xmlns="http://www.w3.org/2000/svg"
 width="1000.000000pt" height="1000.000000pt" viewBox="0 0 1000.000000 1000.000000"
 preserveAspectRatio="xMidYMid meet">

<g transform="translate(0.000000,1000.000000) scale(0.100000,-0.100000)"
fill="#000000" stroke="none">
<path d="M7830 8744 c-60 -21 -90 -58 -90 -109 0 -35 24 -79 56 -104 l26 -20
-46 -53 c-53 -60 -96 -140 -96 -177 0 -59 74 -131 133 -131 15 0 42 7 60 17
65 33 139 49 184 40 83 -19 143 23 143 99 0 34 -6 48 -31 73 -17 17 -34 31
-39 31 -5 0 -21 5 -35 10 l-27 10 42 48 c76 86 97 151 66 210 -21 41 -60 58
-125 53 -95 -6 -135 -6 -171 1 -19 4 -42 5 -50 2z m275 -101 c9 -26 -27 -76
-129 -180 -104 -107 -138 -153 -113 -153 7 0 38 9 70 20 67 24 96 25 141 6 69
-29 54 -60 -21 -44 -49 11 -134 -7 -204 -43 -32 -16 -38 -16 -58 -3 -47 34
-19 88 125 235 52 53 94 102 94 108 0 9 -20 11 -79 6 -74 -7 -79 -6 -94 16
-27 38 -9 44 132 45 102 0 131 -3 136 -13z"/>
<path d="M7194 8220 c-117 -16 -184 -72 -184 -153 0 -45 12 -71 52 -113 l30
-32 -32 -23 c-42 -32 -90 -106 -90 -141 0 -46 24 -92 70 -131 55 -47 95 -54
172 -33 33 9 127 30 209 46 205 41 260 67 274 130 13 59 -30 112 -106 130
l-49 12 35 39 c30 33 35 46 35 88 0 69 -29 108 -112 150 -59 29 -79 34 -155
37 -48 1 -116 -1 -149 -6z m271 -108 c32 -17 53 -37 59 -55 9 -24 6 -31 -25
-63 -19 -19 -84 -67 -146 -105 -61 -39 -117 -77 -124 -85 -17 -21 35 -19 123
6 81 22 165 25 217 7 84 -29 35 -56 -179 -98 -80 -15 -161 -33 -180 -39 -65
-19 -95 -13 -129 25 -17 20 -31 40 -31 46 0 23 90 104 206 184 68 48 126 91
130 96 9 15 -48 10 -114 -11 -91 -28 -135 -27 -161 6 -24 31 -26 44 -8 67 22
32 86 46 202 46 101 1 114 -2 160 -27z"/>
<path d="M7900 7940 c-82 -15 -122 -59 -128 -140 -4 -50 0 -69 23 -116 46 -94
100 -120 319 -155 l78 -12 -23 -18 c-13 -10 -124 -75 -245 -145 -122 -70 -263
-157 -314 -193 -111 -78 -231 -195 -260 -250 -53 -105 1 -245 117 -298 l54
-25 102 23 c86 19 133 23 297 23 l195 1 70 -40 c137 -78 190 -90 254 -57 50
25 73 61 73 115 0 86 -70 159 -221 231 -100 48 -160 58 -307 54 l-125 -3 28
22 c15 13 141 87 278 164 316 179 404 237 475 307 67 68 94 121 95 182 0 109
-83 166 -267 181 -168 14 -249 34 -368 94 -112 57 -145 66 -200 55z m171 -134
c118 -61 197 -82 361 -95 162 -14 218 -41 218 -106 0 -84 -119 -179 -472 -378
-290 -163 -387 -227 -452 -297 -48 -52 -57 -76 -30 -87 9 -3 89 0 177 7 205
17 277 8 392 -49 148 -73 204 -155 131 -190 -27 -13 -35 -10 -145 45 l-116 59
-195 3 c-171 3 -208 1 -306 -19 l-111 -23 -34 20 c-38 23 -79 86 -79 124 0 35
27 76 100 148 95 93 197 163 443 305 305 176 417 251 417 278 0 17 -50 29
-235 61 -99 16 -192 36 -207 44 -32 17 -67 72 -75 118 -4 28 -1 39 20 60 40
40 78 34 198 -28z"/>
<path d="M4114 6820 c-383 -43 -810 -248 -1375 -657 -381 -277 -990 -801
-1180 -1016 -404 -457 -676 -1054 -729 -1602 -43 -435 127 -927 408 -1186 125
-115 258 -190 410 -231 70 -19 112 -21 460 -25 405 -6 588 3 787 37 61 10 114
15 120 10 85 -71 638 -139 1389 -171 357 -15 1193 -6 1461 15 546 45 1057 119
1165 169 55 26 121 91 150 146 l20 41 49 -24 c126 -64 155 -69 416 -67 717 4
1127 59 1289 170 224 154 393 527 437 961 20 207 -6 415 -76 591 -173 438
-733 1128 -1332 1644 -51 43 -93 87 -93 96 0 34 -50 211 -76 269 -43 96 -129
163 -264 205 -40 13 -104 19 -235 22 l-180 5 -116 53 c-568 259 -1295 445
-2079 531 -164 18 -712 27 -826 14z m796 -185 c350 -34 724 -97 1075 -182
l190 -46 -78 -17 c-108 -23 -242 -93 -367 -192 -278 -218 -341 -258 -755 -469
l-230 -117 -105 -7 c-121 -9 -274 -38 -298 -57 -22 -18 -166 -239 -242 -373
-34 -60 -64 -111 -65 -113 -2 -2 -31 15 -66 38 -91 58 -152 74 -289 74 -354
-2 -734 -177 -894 -411 -75 -110 -91 -166 -91 -313 1 -112 3 -131 27 -186 53
-126 164 -255 283 -329 33 -21 62 -39 64 -41 2 -2 -22 -31 -53 -66 -247 -277
-386 -610 -386 -927 0 -91 30 -334 43 -347 2 -3 34 40 71 95 66 100 94 131 82
95 -15 -49 -26 -134 -26 -203 0 -94 21 -181 60 -243 16 -26 26 -49 22 -52 -4
-2 -56 -10 -117 -17 -76 -10 -233 -14 -513 -14 l-404 0 -62 65 c-151 160 -228
419 -229 770 0 264 29 444 117 715 25 76 43 141 41 143 -15 16 -111 -82 -160
-163 -59 -98 -117 -300 -145 -505 -14 -102 -14 -377 0 -478 22 -160 73 -319
139 -431 25 -42 28 -52 14 -47 -46 17 -132 77 -195 136 -207 190 -329 468
-369 835 -43 409 131 975 448 1453 159 240 276 369 588 647 748 667 1347 1074
1797 1223 210 69 322 82 668 77 135 -2 319 -11 410 -20z m1535 -379 c32 -9
121 -41 197 -71 214 -84 218 -85 521 -85 282 0 337 -6 424 -46 72 -34 117 -88
143 -171 24 -77 63 -272 115 -570 61 -353 121 -559 194 -667 l30 -46 -22 -15
c-24 -17 -175 -21 -239 -6 -35 8 -37 7 -28 -10 6 -10 15 -21 20 -24 23 -14 7
-25 -39 -25 -28 0 -53 -4 -56 -10 -6 -10 -138 51 -149 69 -4 5 5 18 19 29 23
18 35 62 17 62 -4 0 -29 20 -56 44 -43 40 -47 46 -36 68 6 12 58 68 115 124
75 72 110 114 125 150 22 50 39 154 25 154 -4 0 -24 -13 -44 -28 -20 -16 -46
-31 -58 -34 -43 -11 -48 11 -48 213 0 103 -3 191 -7 195 -26 25 -80 -82 -113
-222 -31 -130 -70 -215 -131 -283 -55 -61 -106 -93 -201 -125 -89 -30 -115
-44 -107 -57 3 -6 -17 -35 -46 -64 l-53 -54 12 -61 c7 -34 11 -64 9 -65 -2 -2
-42 7 -88 22 -203 60 -349 111 -560 193 -124 48 -272 103 -330 120 -58 18
-108 36 -112 39 -4 4 1 36 12 71 45 150 81 454 63 535 -8 37 -11 40 -48 43
-21 2 -59 -4 -83 -14 l-46 -17 78 -39 c42 -21 75 -42 72 -47 -3 -4 -36 -20
-75 -35 l-70 -27 -12 -75 c-6 -41 -15 -74 -18 -74 -4 0 -31 25 -61 56 l-55 56
-82 -7 c-49 -3 -83 -2 -83 3 0 5 9 21 20 35 20 25 17 24 -66 -14 -47 -23 -115
-51 -151 -64 l-65 -22 -71 43 c-79 49 -193 99 -249 109 -21 4 -38 10 -38 14 0
4 30 22 68 40 113 55 421 220 521 279 93 55 159 102 359 259 110 86 196 135
278 158 66 19 277 13 359 -9z m-1581 -805 c162 -43 293 -123 504 -308 57 -50
124 -102 150 -116 26 -14 112 -41 192 -60 190 -46 331 -92 580 -189 287 -113
678 -237 1019 -323 109 -27 164 -50 219 -92 l33 -25 -6 -67 c-33 -332 -81
-494 -160 -537 -30 -16 -40 -16 -102 -5 -37 7 -259 75 -493 153 -425 140 -559
177 -637 178 -85 0 -162 44 -368 205 -38 30 -86 63 -105 72 -19 9 -333 76
-696 149 -364 73 -680 138 -702 143 -38 11 -41 14 -51 61 -14 67 -54 162 -92
221 l-31 49 47 87 c48 88 200 337 234 382 27 36 112 51 261 47 85 -3 150 -11
204 -25z m3396 -301 c485 -485 830 -957 939 -1287 43 -128 55 -231 48 -407
-18 -431 -207 -850 -428 -944 -63 -27 -194 -58 -319 -76 -110 -16 -390 -40
-395 -34 -2 2 21 35 52 73 144 178 239 373 288 588 40 176 38 479 -6 649 -40
161 -118 296 -193 335 -30 15 -86 34 -86 29 0 -2 18 -41 39 -87 84 -178 120
-328 128 -524 7 -164 -8 -279 -54 -417 -62 -189 -184 -383 -350 -558 l-92 -97
-173 -7 c-192 -7 -240 0 -356 54 l-62 29 7 43 c5 24 8 104 7 178 -1 231 -40
389 -154 626 l-67 141 42 22 c23 12 68 48 99 80 56 57 59 58 94 50 68 -16 125
-10 179 16 110 55 170 190 208 470 10 66 18 156 19 201 l1 81 60 -22 c59 -22
60 -24 66 -66 9 -69 28 -98 83 -127 47 -25 60 -27 166 -26 95 0 125 4 173 23
105 41 142 89 178 228 33 133 22 266 -26 297 -31 20 -100 21 -155 1 -23 -8
-46 -12 -51 -9 -15 9 -58 89 -83 152 -34 85 -81 272 -111 437 -13 77 -27 151
-31 164 -4 20 4 16 58 -30 35 -30 151 -142 258 -249z m-4385 -173 c132 -66
254 -230 294 -391 l12 -49 -43 -45 -43 -44 73 36 72 36 78 -19 c42 -11 354
-74 692 -141 337 -67 621 -125 630 -130 8 -4 74 -54 145 -110 169 -131 245
-169 368 -180 97 -10 174 -30 430 -111 l157 -51 51 -81 c27 -45 81 -144 120
-220 l69 -139 -22 -40 c-48 -84 -169 -188 -293 -250 -46 -24 -91 -39 -248 -84
-119 -35 -174 -104 -108 -138 40 -21 59 -70 40 -105 -21 -38 -71 -58 -204 -81
-293 -51 -398 -60 -493 -39 l-49 10 -18 64 c-56 209 -179 324 -410 387 -66 17
-109 21 -250 22 -149 1 -179 -2 -240 -21 -123 -39 -225 -111 -317 -225 -49
-60 -104 -164 -114 -216 -7 -35 -24 -42 -107 -42 -173 0 -433 105 -578 235
-26 22 -67 52 -93 65 -54 29 -77 22 -87 -30 -11 -52 -40 -73 -107 -78 -68 -5
-178 20 -205 47 -15 14 -16 22 -7 46 15 39 7 52 -39 66 l-40 12 25 55 c13 30
22 57 20 59 -3 3 -32 -18 -66 -46 -33 -28 -66 -51 -72 -51 -5 0 -25 15 -43 33
-48 48 -68 126 -63 238 4 83 7 93 66 211 122 245 380 532 587 654 40 23 58 44
38 44 -20 -1 -216 -102 -274 -143 l-67 -45 -64 53 c-77 62 -149 155 -192 245
-29 61 -31 73 -31 175 0 101 2 115 29 170 38 78 138 176 242 237 257 151 605
219 749 145z m4455 -383 c23 -59 1 -223 -39 -303 -25 -47 -69 -74 -163 -96
-119 -28 -241 -9 -275 42 -36 54 -5 185 49 214 13 7 29 18 36 26 26 26 30 12
11 -38 -11 -27 -17 -54 -14 -59 3 -5 36 22 74 59 80 79 162 136 234 162 68 24
76 24 87 -7z m-1403 -882 c26 -11 56 -22 66 -25 17 -6 17 -9 2 -38 -9 -17 -14
-33 -11 -36 3 -3 26 6 52 21 43 24 94 28 94 6 0 -20 -123 -115 -138 -106 -6 4
-91 138 -119 189 -6 10 1 9 54 -11z m-2305 -840 c-3 -38 1 -59 21 -99 34 -67
123 -146 192 -172 111 -42 306 -19 438 51 64 34 94 74 105 140 l8 43 36 -55
c58 -87 91 -205 92 -325 1 -85 -3 -106 -21 -141 -28 -52 -73 -91 -121 -103
-123 -33 -574 -40 -742 -11 -213 36 -298 109 -308 266 -8 119 45 239 150 341
49 47 134 112 149 113 3 0 4 -22 1 -48z"/>
<path d="M3577 4765 c-26 -7 -81 -29 -122 -48 -217 -104 -357 -257 -341 -374
10 -76 28 -121 63 -162 42 -49 132 -96 168 -87 36 9 31 20 -17 42 -66 29 -123
87 -138 139 -18 65 -8 129 27 173 78 97 269 215 402 248 105 26 162 5 220 -83
35 -52 38 -84 15 -143 -20 -49 -9 -67 25 -44 29 21 51 72 51 119 0 70 -80 182
-155 216 -47 22 -128 23 -198 4z"/>
<path d="M5654 3256 c-62 -27 -140 -130 -132 -174 6 -34 39 -24 93 28 90 85
165 107 254 75 22 -8 41 -10 41 -6 0 16 -42 62 -70 76 -36 19 -144 19 -186 1z"/>
<path d="M4120 3239 c-39 -16 -90 -59 -90 -76 0 -11 5 -13 18 -8 9 5 44 10 78
13 75 5 123 -17 204 -94 80 -76 127 -71 100 10 -33 100 -125 166 -230 165 -30
0 -66 -5 -80 -10z"/>
</g>
</svg>
